<svg width="258" height="258" viewBox="0 0 258 258" fill="none" xmlns="http://www.w3.org/2000/svg">
  <circle cx="129" cy="129" r="129" fill="#030C11" />
  <path
    d="M125.314 116.849H115.12C114.728 114.671 113.999 112.755 112.932 111.099C111.864 109.444 110.557 108.039 109.011 106.885C107.465 105.731 105.733 104.859 103.816 104.271C101.922 103.683 99.9069 103.389 97.7724 103.389C93.9173 103.389 90.4651 104.358 87.4159 106.297C84.3884 108.235 81.9926 111.078 80.2284 114.824C78.486 118.57 77.6147 123.144 77.6147 128.545C77.6147 133.991 78.486 138.586 80.2284 142.332C81.9926 146.079 84.3993 148.91 87.4486 150.827C90.4978 152.743 93.9282 153.702 97.7397 153.702C99.8524 153.702 101.856 153.419 103.751 152.852C105.668 152.264 107.399 151.404 108.946 150.271C110.492 149.139 111.799 147.756 112.866 146.122C113.955 144.467 114.707 142.572 115.12 140.438L125.314 140.47C124.769 143.759 123.713 146.786 122.145 149.553C120.598 152.297 118.605 154.671 116.166 156.675C113.748 158.657 110.982 160.192 107.868 161.281C104.753 162.37 101.355 162.915 97.6744 162.915C91.8808 162.915 86.7189 161.543 82.1886 158.798C77.6583 156.032 74.0863 152.079 71.4727 146.939C68.8808 141.799 67.5849 135.668 67.5849 128.545C67.5849 121.402 68.8917 115.27 71.5054 110.152C74.119 105.012 77.691 101.07 82.2213 98.3253C86.7516 95.5592 91.9026 94.1761 97.6744 94.1761C101.225 94.1761 104.535 94.688 107.606 95.7116C110.699 96.7135 113.476 98.1946 115.937 100.155C118.398 102.093 120.435 104.467 122.047 107.277C123.658 110.065 124.747 113.256 125.314 116.849ZM181.246 112.668C180.898 109.575 179.46 107.179 176.934 105.48C174.407 103.759 171.227 102.899 167.394 102.899C164.65 102.899 162.276 103.335 160.272 104.206C158.268 105.055 156.711 106.232 155.6 107.734C154.511 109.215 153.967 110.903 153.967 112.798C153.967 114.388 154.337 115.76 155.077 116.915C155.84 118.069 156.831 119.038 158.05 119.822C159.292 120.585 160.62 121.227 162.036 121.75C163.452 122.251 164.813 122.665 166.12 122.991L172.654 124.69C174.789 125.213 176.977 125.921 179.221 126.814C181.464 127.707 183.544 128.883 185.461 130.342C187.378 131.802 188.924 133.609 190.1 135.766C191.298 137.922 191.897 140.503 191.897 143.509C191.897 147.298 190.917 150.663 188.957 153.604C187.018 156.544 184.198 158.864 180.495 160.562C176.814 162.261 172.36 163.111 167.133 163.111C162.123 163.111 157.789 162.316 154.13 160.726C150.471 159.136 147.607 156.882 145.538 153.963C143.468 151.023 142.325 147.538 142.107 143.509H152.235C152.431 145.926 153.215 147.941 154.587 149.553C155.981 151.143 157.756 152.33 159.913 153.114C162.091 153.876 164.476 154.257 167.067 154.257C169.921 154.257 172.458 153.811 174.68 152.918C176.923 152.003 178.687 150.74 179.972 149.128C181.257 147.494 181.9 145.589 181.9 143.411C181.9 141.429 181.334 139.806 180.201 138.543C179.09 137.279 177.576 136.234 175.66 135.406C173.765 134.579 171.62 133.849 169.224 133.217L161.317 131.061C155.959 129.602 151.712 127.456 148.576 124.625C145.461 121.794 143.904 118.047 143.904 113.386C143.904 109.531 144.95 106.166 147.04 103.291C149.131 100.416 151.963 98.1837 155.535 96.5938C159.107 94.982 163.136 94.1761 167.623 94.1761C172.153 94.1761 176.15 94.9711 179.613 96.5611C183.098 98.151 185.842 100.34 187.846 103.128C189.85 105.894 190.895 109.074 190.982 112.668H181.246Z"
    fill="#E8E8E8" />
</svg>
